<svg xmlns="http://www.w3.org/2000/svg" xmlns:xlink="http://www.w3.org/1999/xlink" width="500" zoomAndPan="magnify" viewBox="0 0 375 374.999991" height="500" preserveAspectRatio="xMidYMid meet" version="1.0"><defs><clipPath id="b2ee57c7c6"><path d="M 5.320312 5.226562 L 368.1875 5.226562 L 368.1875 368.5625 L 5.320312 368.5625 Z M 5.320312 5.226562 " clip-rule="nonzero"/></clipPath><clipPath id="88930fae88"><path d="M 90.1875 115 L 333 115 L 333 370 L 90.1875 370 Z M 90.1875 115 " clip-rule="nonzero"/></clipPath><clipPath id="8f2aef46a2"><path d="M 127 62.214844 L 367.855469 62.214844 L 367.855469 370 L 127 370 Z M 127 62.214844 " clip-rule="nonzero"/></clipPath></defs><rect x="-37.5" width="450" fill="#ffffff" y="-37.499999" height="449.999989" fill-opacity="1"/><rect x="-37.5" width="450" fill="#ffffff" y="-37.499999" height="449.999989" fill-opacity="1"/><g clip-path="url(#b2ee57c7c6)"><path fill="#eb5e28" d="M 5.320312 5.226562 L 368.1875 5.226562 L 368.1875 368.097656 L 5.320312 368.097656 Z M 5.320312 5.226562 " fill-opacity="1" fill-rule="nonzero"/></g><path fill="#eb5e28" d="M 201.898438 369.71875 L 258.171875 369.71875 L 258.171875 272.976562 L 201.898438 245.671875 Z M 201.898438 369.71875 " fill-opacity="1" fill-rule="nonzero"/><g clip-path="url(#88930fae88)"><path fill="#ffffff" d="M 201.898438 208.402344 L 127.976562 244.378906 L 127.976562 178.453125 L 258.171875 115.105469 L 258.171875 272.976562 L 201.898438 245.609375 Z M 332.464844 369.71875 L 332.464844 309.078125 L 258.171875 272.976562 L 258.171875 369.71875 Z M 90.277344 262.707031 L 90.277344 369.71875 L 127.976562 369.71875 L 127.976562 244.378906 Z M 90.277344 262.707031 " fill-opacity="1" fill-rule="nonzero"/></g><g clip-path="url(#8f2aef46a2)"><path fill="#252422" d="M 369.550781 116.335938 L 369.550781 369.71875 L 258.171875 369.71875 L 332.464844 369.71875 L 332.464844 309.078125 L 258.171875 272.976562 L 258.171875 62.214844 Z M 201.898438 245.671875 L 201.898438 208.464844 L 127.976562 244.378906 L 127.976562 369.71875 L 201.960938 369.71875 L 201.960938 245.671875 Z M 201.898438 245.671875 " fill-opacity="1" fill-rule="nonzero"/></g></svg>